<?xml version="1.0" encoding="UTF-8" standalone="no"?>
<svg
   xmlns:dc="http://purl.org/dc/elements/1.1/"
   xmlns:cc="http://creativecommons.org/ns#"
   xmlns:rdf="http://www.w3.org/1999/02/22-rdf-syntax-ns#"
   xmlns:svg="http://www.w3.org/2000/svg"
   xmlns="http://www.w3.org/2000/svg"
   id="svg12"
   version="1.1"
   viewBox="0 0 185.2 79.4"
   height="300"
   width="700">
  <metadata
     id="metadata18">
    <rdf:RDF>
      <cc:Work
         rdf:about="">
        <dc:format>image/svg+xml</dc:format>
        <dc:type
           rdf:resource="http://purl.org/dc/dcmitype/StillImage" />
        <dc:title></dc:title>
      </cc:Work>
    </rdf:RDF>
  </metadata>
  <defs
     id="defs16" />
  <path
     transform="matrix(0.26466667,0,0,0.26466667,-0.03333333,0)"
     d="m 0.125,0 v 140.93164 h 80.857422 c 12.846347,0.25189 23.550998,-1.00656 32.115238,-3.77734 8.56423,-3.02267 15.86872,-7.05402 21.91406,-12.0918 5.54156,-5.28967 10.20213,-12.46715 13.98047,-21.53516 3.77834,-9.068006 5.92005,-19.89968 6.42383,-32.494137 0,-13.853905 -1.88964,-25.18974 -5.66797,-34.005859 C 145.71782,28.463112 140.80517,21.662783 135.01172,16.625 128.96638,11.587217 121.66189,7.5558732 113.09766,4.5332031 104.53342,1.5105331 94.585013,0 83.25,0 Z m 162.46875,0 v 140.93164 h 120.52344 48.74609 l 9.06836,-25.31445 h 41.93945 l 9.06836,25.31445 h 52.89649 L 397.98438,0 H 327.70703 L 295.32812,98.992188 H 208.3125 V 82.746094 h 48.74023 V 58.185547 H 207.93359 V 41.939453 h 75.56836 V 0 Z m 267.57324,0 v 41.939453 h 46.78418 v 98.992187 h 45.71875 V 41.939453 h 49.76307 V 0 Z m 141.24317,0 v 141.31055 h 45.71875 V 90.679688 h 37.02734 V 140.93164 H 699.875 V 0 H 653.7793 V 48.740234 H 617.12891 V 0 Z M 362.8457,31.359375 381.73828,86.902344 H 342.82031 Z M 47.355469,35.138672 h 26.447265 c 6.297231,0 11.334944,1.258452 15.113282,3.777344 3.778337,2.518893 6.928372,6.046073 9.447265,10.580078 2.518889,4.534005 3.777339,11.586416 3.777339,21.158203 -0.50377,10.327455 -2.01431,17.506881 -4.533198,21.537109 -2.267003,4.030228 -5.164959,7.305326 -8.691406,9.824214 -3.778338,2.5189 -8.816051,3.77735 -15.113282,3.77735 H 47.355469 Z"
     style="stroke-width:3.77834"
     id="path2" />
  <path
     transform="matrix(0.26466667,0,0,0.26466667,-0.03333333,0)"
     d="M 136.90234 158.68945 C 119.01821 158.68945 108.3116 167.50643 104.78516 185.13867 C 101.5106 202.77091 111.20888 221.91345 133.87891 242.56836 C 147.48092 253.39959 145.08908 258.43926 126.70117 257.68359 L 49.244141 257.68359 L 49.244141 300 L 172.04102 300 C 192.19215 296.47355 202.51966 286.02099 203.02344 268.64062 C 203.52722 251.00838 193.19971 232.99728 172.04102 214.60938 C 160.20222 205.03758 162.72108 200.50403 179.59766 201.00781 L 223.80273 201.00781 L 251.76367 201.00781 L 251.76367 300 L 297.48047 300 L 297.48047 201.00781 L 342.44336 201.00781 L 342.44336 158.68945 L 223.80273 158.68945 L 136.90234 158.68945 z M 495.08789 158.68945 L 495.08789 294.38672 L 449.74805 159.08984 L 379.84961 159.08984 L 333.375 300.40039 L 384.00586 300.02344 L 393.07227 274.70703 L 435.01172 274.70703 L 443.70312 300.02344 L 496.97656 300.02344 L 496.96484 299.98633 L 545.71875 299.62305 L 545.71875 252.77148 L 568.38867 276.57422 C 583.25013 291.68757 597.98418 299.24414 612.59375 299.24414 L 646.2207 299.24414 L 646.2207 257.68359 L 617.12891 257.68359 C 608.56467 257.68359 602.51864 255.41486 598.99219 250.88086 L 593.70312 244.08008 C 604.53436 241.56119 612.97224 238.03596 619.01758 233.50195 C 624.55914 228.71606 628.58853 223.04717 631.10742 216.49805 C 633.37442 209.69704 633.24936 200.00071 630.73047 187.40625 C 627.45591 178.84202 622.16611 172.16675 614.86133 167.38086 C 607.55654 162.59497 598.23736 159.69701 586.90234 158.68945 L 495.08789 158.68945 z M 414.98828 190.82812 L 433.50195 245.99219 L 394.96289 245.99219 L 414.98828 190.82812 z M 546.0957 194.20703 L 581.61133 194.20703 C 582.87077 194.20703 584.76041 195.08834 587.2793 196.85156 C 589.5463 198.3629 590.93177 201.89008 591.43555 207.43164 C 591.18366 212.9732 589.92521 216.49843 587.6582 218.00977 C 585.3912 219.26921 583.37455 219.89844 581.61133 219.89844 L 546.0957 219.89844 L 546.0957 194.20703 z "
     style="stroke-width:3.77834"
     id="path6" />
</svg>
